PathFileType	4	(X/Y/Z)	C:\Users\WrightLab\Desktop\Jo\P5V25.trc
DataRate	CameraRate	NumFrames	NumMarkers	Units	OrigDataRate	OrigDataStartFrame	OrigNumFrames
100.00	100.00	       14	19	mm	100.00	593	       790
Frame#	Time	Headset_Front			Headset_Back			Headset_Left			Headset_Right			Left_Shoulder			Right_Shoulder			Sternum			C7			Left Elbow			Right Elbow			Left Wrist			Right Wrist			Left ASIS			Right ASIS			S2			Left Knee			Right Knee			Left Ankle			Right Ankle			
		X1	Y1	Z1	X2	Y2	Z2	X3	Y3	Z3	X4	Y4	Z4	X5	Y5	Z5	X6	Y6	Z6	X7	Y7	Z7	X8	Y8	Z8	X9	Y9	Z9	X10	Y10	Z10	X11	Y11	Z11	X12	Y12	Z12	X13	Y13	Z13	X14	Y14	Z14	X15	Y15	Z15	X16	Y16	Z16	X17	Y17	Z17	X18	Y18	Z18	X19	Y19	Z19	

593	5.920	81.37047	1447.16150	-65.34531	163.79848	1572.84985	-214.47495							143.62476	1481.41455	-442.04318	-32.93913	1543.70435	-91.31461	14.33238	1280.78088	-282.75381	-89.85164	1532.12659	-386.56415	134.42026	1382.19275	-385.82040	-245.05476	1188.96484	-81.50320	194.30591	1223.76611	-481.26334	-96.68140	1040.46887	46.25232	74.68912	901.20575	-376.09424	-167.98296	933.82031	-208.50359	-169.28902	1000.86121	-523.97913	57.90348	491.17160	-400.18420	-298.54813	507.38608	-211.41203	-59.03940	81.69047	-386.18036	-415.26892	118.97967	-281.23828	
594	5.930	78.39083	1452.57593	-64.91074	162.01526	1575.38977	-214.83980							144.48364	1481.00842	-442.23083	-36.87130	1548.35486	-94.91468	13.16271	1281.23352	-283.58810	-89.74888	1532.16455	-390.07635	134.53192	1382.52661	-385.45569	-249.87541	1191.18726	-87.31970	195.84520	1224.03931	-479.45792	-102.36367	1041.83862	41.90163	75.53940	901.05225	-374.53827	-170.00507	934.33679	-209.29852	-167.27017	1000.17987	-525.00482	57.27634	491.00046	-397.39908	-300.44748	508.54568	-212.27774	-59.05799	81.69428	-386.17703	-414.24310	119.28242	-284.31821	
595	5.940	75.27370	1458.63489	-64.53972	160.06433	1578.99573	-216.70830							145.26645	1480.64038	-441.98532	-139.53987	1441.20728	-174.85945	12.33776	1281.98108	-283.99780	-89.40291	1531.98486	-393.41895	135.43796	1382.63696	-385.01517	-254.93394	1191.75269	-92.32141	198.18925	1224.18469	-480.04712	-108.61596	1043.38586	37.21082	76.25306	900.66028	-371.51239	-171.23134	936.22443	-210.58475	-165.87379	999.35370	-526.29449	58.04808	491.98273	-395.92441	-301.63086	508.72086	-213.83423	-59.00600	81.55947	-385.93454	-413.39996	119.10375	-287.52509	
596	5.950	72.60426	1464.79285	-64.84781	157.77095	1582.25598	-218.43474							145.98878	1480.02283	-441.96957	-141.19278	1442.17773	-178.17278	11.13265	1282.28528	-285.09058	-89.05910	1531.72180	-397.05756	135.17377	1383.09644	-384.97839	-259.56140	1193.58862	-97.90590	200.18803	1224.36548	-476.99796	-114.23914	1044.91956	32.65714	76.93607	900.66730	-370.24011	-173.70078	936.42877	-212.11948	-164.67276	999.03644	-528.11981	57.33362	491.77817	-393.74280	-303.22302	509.14594	-215.50996	-59.06194	81.52084	-385.68567	-412.28247	119.07267	-291.54468	
597	5.960	68.97945	1471.17834	-64.62096	155.28294	1585.14929	-220.17166							146.26236	1479.87073	-442.17380	-144.55908	1442.86682	-182.51640	10.12480	1283.73938	-285.84378	-89.29842	1531.73792	-400.46844	135.01302	1383.01624	-384.98077	-265.22333	1194.65894	-103.64367	201.50627	1224.33704	-475.87451	-120.59712	1046.80847	28.03441	77.01793	900.67786	-368.07538	-176.22064	936.93445	-214.60576	-163.46829	997.78094	-528.89001	56.49722	491.42545	-391.71957	-305.66385	509.80884	-217.36998	-59.04510	81.52164	-385.68668	-411.88519	119.00503	-295.75146	
598	5.970	65.71048	1477.71423	-64.55056	153.21535	1588.82495	-222.37898							146.71071	1479.84082	-442.60867	-147.57964	1443.87817	-186.99675	9.14221	1283.73303	-286.58279	-89.33972	1531.78284	-404.22522	135.14461	1383.60449	-385.20779	-269.65109	1195.96631	-109.06187	203.42542	1224.24854	-473.76874	-126.14612	1048.03638	23.36196	77.39521	900.47266	-365.78250	-177.32590	937.51086	-214.26384	-161.87367	997.19177	-530.53119	55.81419	491.30215	-389.57770	-306.79391	509.65390	-218.16164	-59.04193	81.51772	-385.68878	-411.42261	119.76917	-301.72919	
599	5.980	62.77368	1484.80652	-64.73850	150.19974	1592.56604	-225.24580							147.30824	1479.85486	-443.26367	-150.44278	1444.06079	-189.23807	7.19889	1284.68042	-287.47803	-89.35021	1531.61792	-407.74872	134.72540	1383.74084	-384.99780	-274.32468	1197.03870	-114.63376	204.85960	1224.51013	-471.86868	-132.26796	1049.48047	18.56713	78.22762	900.43256	-363.42026	-179.06213	938.89264	-214.93893	-160.99443	996.26190	-531.23895	53.58226	490.51428	-388.98831	-307.73444	510.15973	-220.06552	-58.96320	81.36536	-385.75461	-411.38113	119.86765	-307.16144	
600	5.990	59.55776	1491.94751	-65.53607	147.87103	1596.18176	-227.57877							147.34285	1479.77393	-443.95676	-152.79945	1446.47522	-194.37161	5.70170	1285.22253	-288.16888	-89.72339	1531.42737	-411.57004	134.46941	1384.30420	-385.55063	-279.68420	1198.50195	-121.24201	205.50256	1224.19482	-468.77701	-137.81171	1050.78113	13.47151	78.56680	900.42145	-360.94147	-180.92502	939.43964	-215.83945	-160.44162	995.50366	-533.19366	53.93478	491.19788	-386.31342	-308.59509	509.93250	-222.05058	-58.99568	81.52357	-385.68985	-410.40359	119.82004	-313.90616	
601	6.000	55.93427	1499.54272	-65.90276	144.75456	1599.49048	-229.69821							147.04857	1479.80103	-444.47549				4.25125	1286.34070	-289.77985	-90.16874	1531.10071	-415.00317	134.22574	1384.95874	-385.84946	-283.91931	1199.94678	-126.35606	206.45897	1224.14685	-465.85449	-143.78741	1052.05103	8.43173	79.44950	901.16046	-359.01035	-182.22392	940.45087	-216.27759	-159.42111	995.19720	-533.82678	51.52290	490.74570	-385.78366	-309.55887	511.03107	-222.40134	-58.96797	81.51965	-385.69397	-410.05771	120.37627	-321.57803	
602	6.010	52.62995	1507.64746	-66.98061	142.32619	1603.49707	-233.24309							147.05948	1479.96130	-444.73602				1.81914	1286.37402	-290.78564	-90.81068	1531.26343	-418.86548	134.03018	1385.33154	-385.84979	-289.15247	1201.24854	-132.20592	207.88480	1224.70264	-466.60751	-149.61169	1053.47534	3.36067	79.73153	901.46857	-356.35239	-185.38318	940.51563	-215.86736	-158.88686	993.86359	-535.66083	50.81510	490.90424	-384.45557	-310.69922	510.79959	-223.52388	-58.87030	81.35787	-385.76578	-409.53815	120.80879	-329.21457	
603	6.020	49.88694	1515.53528	-68.46105	139.29570	1607.38318	-236.77658							146.51086	1479.83679	-446.05048				0.08661	1288.35815	-292.00647	-90.92655	1531.08545	-421.96021	133.75702	1385.97412	-386.17065	-293.60086	1202.17944	-138.47127	208.71873	1225.11340	-464.20889	-155.66397	1054.50305	-1.59210	80.34799	902.17297	-355.33530	-187.01488	941.32092	-216.83427	-158.56602	993.19092	-536.60333	50.17136	490.89792	-382.78625	-310.95822	510.91156	-224.36075	-58.80464	81.37605	-386.02502	-408.86786	121.16640	-337.77356	
604	6.030	45.85079	1524.46667	-69.97601	135.63562	1611.45874	-239.99425							145.97678	1479.97131	-446.39984				-0.85322	1289.02905	-292.32736	-91.77235	1531.14600	-425.52631	132.69102	1386.59155	-386.20264	-298.47400	1202.95251	-144.23248	208.53520	1225.45081	-461.69949	-161.07225	1055.78833	-6.87069	79.97491	902.55164	-352.50290	-188.99796	941.74146	-218.26134	-157.78189	992.77991	-538.50049	50.08741	491.16101	-382.18579	-310.91946	510.97177	-225.81593	-58.81794	81.35799	-385.77005	-408.74469	122.58194	-347.14551	
605	6.040	42.55713	1532.36462	-72.06673	132.93024	1615.34167	-243.74919							145.43170	1480.15173	-447.14655	-168.04349	1450.77869	-212.72922	-3.43532	1289.80908	-293.67068	-92.84306	1530.69385	-428.90634	132.61018	1387.61353	-387.14636	-302.82837	1204.23657	-150.01410	209.28133	1225.44153	-459.52466	-166.83350	1056.77417	-12.08131	80.30653	902.80334	-351.83722	-190.41071	941.90552	-219.54825	-157.15866	991.78760	-539.51111	48.84801	490.83698	-380.59125	-311.26459	511.34634	-227.08806	-58.75110	81.36989	-386.03232	-408.43396	123.54318	-356.73883	
606	6.050	38.91985	1541.00854	-73.93428	129.61182	1619.91504	-247.58331							144.54887	1480.34851	-448.19016	-172.82303	1451.94397	-217.76468	-5.20322	1290.61194	-294.56467	-93.74647	1530.07446	-432.56586	131.32991	1387.77222	-387.27536	-307.68155	1204.68164	-155.60512	209.56418	1226.68787	-458.70822	-172.22484	1057.75757	-16.97108	80.15106	903.78131	-349.93188	-191.35471	942.72827	-220.40659	-156.97015	990.84302	-540.81024	48.94128	490.95636	-379.29416	-311.51025	511.10425	-228.21976	-58.73568	81.36614	-386.03534	-407.79727	124.59843	-367.23041	
